<svg xmlns="http://www.w3.org/2000/svg" viewBox="0 0 457.41 507.84" fill="#1E9CD7"><defs></defs><title>Ativo 70</title><g id="Camada_2" data-name="Camada 2"><g id="Camada_1-2" data-name="Camada 1"><path class="cls-1" d="M220.85,1.9l-182,106.21c-12.77,7.46-12.75,19.63,0,27.05l182,105.46c4.3,2.49,11.34,2.51,15.64,0L420,135.18c12.93-7.43,12.95-19.63,0-27.1L236.58,1.87C232.25-.63,225.17-.62,220.85,1.9Z"></path><path class="cls-1" d="M0,174.08V385.69c0,5,3.52,11.07,7.82,13.55L190.46,504.66c12.9,7.45,23.46,1.35,23.46-13.55V280.24c0-4.95-3.5-11-7.78-13.52L23.51,160.55C10.58,153,0,159.12,0,174.08Z"></path><path class="cls-1" d="M433.94,160.43,251.31,265.85c-4.3,2.49-7.82,8.59-7.82,13.55V491.11c0,14.9,10.56,21,23.47,13.55L449.59,399.24c4.3-2.48,7.82-8.58,7.82-13.55V272.5c0-15-10.61-21.11-23.57-13.49l-97.41,57.26a17.37,17.37,0,0,0-7.72,13.49v13.55c0,14.89,10.55,21,23.45,13.56l62.64-36.06V360.5c0,4.95-3.5,11-7.78,13.53l-97.42,56.6c-12.92,7.51-23.5,1.43-23.5-13.53V303.86c0-5,3.58-11.16,8-13.63l155.39-87.55c4.38-2.47,8-8.6,8-13.63V174C457.41,159.08,446.85,153,433.94,160.43Z"></path></g></g></svg>