<svg width="2135" height="2093" viewBox="0 0 2135 2093" fill="none"
    xmlns="http://www.w3.org/2000/svg">
    <defs>
        <linearGradient id="logoGradient" x1="0%" y1="0%" x2="100%" y2="100%">
            <stop offset="0%" style="stop-color:#3385d6;stop-opacity:1" />
            <stop offset="100%" style="stop-color:#00d4ff;stop-opacity:1" />
        </linearGradient>
    </defs>
    <path fill-rule="evenodd" clip-rule="evenodd"
        d="M1051.72 1.02215C1028.65 3.97015 1053.18 -8.47885 675.725 191.815C490.925 289.878 335.225 372.491 329.725 375.4C184.263 452.341 59.1646 519.099 53.7246 522.685C27.5906 539.915 7.3476 571.56 1.8356 603.801C-0.532397 617.655 -0.648397 1570.6 1.7156 1584.17C7.4526 1617.06 26.6816 1647.27 53.2246 1665.09C71.8686 1677.6 820.269 2082.31 831.934 2086.19C904.292 2110.23 980.362 2064.87 992.621 1990.38C994.45 1979.26 995.917 718.2 994.11 709.775C991.902 699.478 982.798 689.44 973.388 686.927C961.762 683.822 478.125 685.65 471.68 688.823C453.544 697.751 454.128 694.09 454.453 796.72C454.76 893.561 454.118 887.33 464.757 896.694C474.215 905.019 460.744 904.419 629.355 904.026C731.156 903.789 779.188 904.006 779.62 904.705C779.97 905.271 779.815 995.878 779.276 1106.05C778.736 1216.23 777.985 1421.26 777.606 1561.67C776.977 1794.45 776.776 1816.92 775.326 1816.36C772.22 1815.17 248.636 1525.51 243.521 1522.16C232.305 1514.8 222.259 1500.6 218.81 1487.23C216.449 1478.08 216.374 711.656 218.734 702.335C225.36 676.156 226.521 675.276 319.725 625.848C360.425 604.263 403.85 581.217 416.225 574.634C560.03 498.134 1034.68 246.623 1040.85 243.655C1057.12 235.826 1073.97 235.333 1090.5 242.203C1103.3 247.519 1885.26 655.804 1892.22 660.799C1903.73 669.067 1912.41 682.076 1915.68 695.963C1918.46 707.746 1917.95 1469.81 1915.15 1479.89C1911.28 1493.86 1901.52 1507.64 1890.49 1514.7C1884.29 1518.67 1751.04 1591.88 1750.02 1591.88C1749.59 1591.88 1749.12 1405.46 1748.98 1177.63C1748.69 707.795 1749.83 758.391 1739.32 748.561C1735.17 744.678 1591.03 670.778 1568.84 661.156C1553.14 654.347 1535.75 661.094 1528.31 676.875C1525.72 682.375 1525.72 682.375 1525.22 1200.17C1524.72 1717.96 1524.72 1717.96 1443.81 1762.51C1399.3 1787.02 1362.29 1807.3 1361.56 1807.58C1360.46 1808 1360.19 1702.89 1359.98 1187.23C1359.69 491.268 1360.68 561.48 1351.02 552.184C1348.22 549.496 1203.57 471.775 1181.75 461.242C1164.86 453.083 1144.19 461.012 1138.83 477.704C1136.37 485.38 1136.2 1978.64 1138.66 1990.8C1154.98 2071.44 1241 2115.26 1312.94 2079.57C1329.5 2071.36 2073.62 1663.13 2081.22 1658.09C2106.85 1641.09 2125.79 1612.44 2132.21 1580.95C2134.91 1567.69 2135.45 610.157 2132.76 594.746C2127.14 562.518 2107.55 532.517 2080.3 514.434C2072.4 509.19 1128.41 15.1152 1116.22 9.84515C1096.4 1.27215 1073.88 -1.80785 1051.72 1.02215Z"
        fill="url(#logoGradient)" />
</svg>